<svg width="1000" height="500" viewBox="0 0 1000 500" fill="none" xmlns="http://www.w3.org/2000/svg">
<g clip-path="url(#clip0_7_37)">
<circle opacity="0.1" cx="500" cy="500" r="199.5" stroke="white"/>
<circle opacity="0.15" cx="500" cy="500" r="299.5" stroke="white"/>
<circle opacity="0.2" cx="500.5" cy="500.5" r="414.807" stroke="white" stroke-width="1.385"/>
<circle opacity="0.25" cx="500" cy="500" r="499.5" stroke="white"/>
<path fill-rule="evenodd" clip-rule="evenodd" d="M530.905 412.503L529.092 419.265C526.974 427.157 525.917 431.105 523.52 433.664C521.628 435.684 519.18 437.098 516.485 437.727C516.145 437.808 515.802 437.867 515.452 437.909C512.25 438.305 508.34 437.258 501.228 435.354C493.336 433.237 489.388 432.18 486.829 429.782C484.809 427.889 483.395 425.44 482.766 422.744C481.968 419.328 483.025 415.383 485.142 407.491L486.952 400.729L487.806 397.561C489.398 391.73 490.469 388.521 492.524 386.326C494.416 384.307 496.864 382.894 499.559 382.266C502.975 381.468 506.923 382.525 514.819 384.643C522.708 386.757 526.656 387.814 529.214 390.208C531.236 392.101 532.65 394.552 533.278 397.25C534.076 400.666 533.019 404.61 530.905 412.503ZM496.678 409.318C496.768 408.984 496.922 408.672 497.132 408.399C497.342 408.125 497.604 407.896 497.902 407.724C498.201 407.551 498.531 407.44 498.873 407.395C499.215 407.35 499.562 407.373 499.895 407.463L516.8 411.995C517.142 412.076 517.464 412.225 517.747 412.433C518.03 412.64 518.269 412.903 518.449 413.205C518.629 413.506 518.746 413.841 518.795 414.189C518.843 414.537 518.821 414.891 518.729 415.23C518.638 415.569 518.48 415.887 518.264 416.164C518.048 416.441 517.778 416.672 517.472 416.843C517.165 417.013 516.827 417.121 516.477 417.159C516.128 417.197 515.775 417.164 515.438 417.063L498.533 412.534C497.862 412.354 497.289 411.914 496.941 411.311C496.593 410.709 496.499 409.99 496.678 409.318ZM493.962 419.464C494.143 418.792 494.583 418.219 495.185 417.872C495.788 417.524 496.503 417.429 497.175 417.609L507.318 420.329C507.662 420.408 507.986 420.555 508.271 420.763C508.556 420.97 508.797 421.232 508.978 421.534C509.16 421.836 509.279 422.172 509.328 422.521C509.377 422.87 509.355 423.225 509.264 423.566C509.172 423.906 509.014 424.225 508.797 424.502C508.58 424.78 508.309 425.011 508.001 425.182C507.692 425.353 507.353 425.46 507.002 425.497C506.652 425.534 506.298 425.5 505.96 425.397L495.817 422.681C495.484 422.591 495.172 422.437 494.899 422.227C494.625 422.017 494.396 421.755 494.224 421.457C494.051 421.158 493.94 420.828 493.895 420.486C493.85 420.144 493.873 419.797 493.962 419.464Z" fill="#F9F9F9"/>
<path opacity="0.5" d="M515.452 437.913C514.72 440.152 513.434 442.171 511.714 443.782C509.156 446.18 505.208 447.236 497.315 449.35C489.423 451.464 485.475 452.525 482.062 451.727C479.366 451.098 476.916 449.684 475.024 447.663C472.626 445.105 471.566 441.157 469.452 433.264L467.642 426.502C465.525 418.61 464.468 414.662 465.262 411.249C465.892 408.553 467.307 406.103 469.329 404.211C471.888 401.813 475.836 400.756 483.728 398.639C485.219 398.24 486.574 397.876 487.806 397.557L486.952 400.728L485.142 407.49C483.025 415.383 481.968 419.327 482.762 422.743C483.392 425.44 484.807 427.89 486.829 429.782C489.388 432.18 493.336 433.236 501.228 435.354C508.34 437.258 512.25 438.308 515.452 437.913Z" fill="white"/>
<g clip-path="url(#clip1_7_37)">
<path opacity="0.8" fill-rule="evenodd" clip-rule="evenodd" d="M528.705 460.378C528.541 460.593 528.356 460.923 528.087 461.406L527.95 461.65L527.926 461.695C527.801 461.92 527.695 462.11 527.524 462.24C527.352 462.37 527.142 462.418 526.898 462.473L526.85 462.483L526.585 462.543C526.062 462.662 525.706 462.743 525.463 462.839C525.225 462.933 525.175 463.01 525.156 463.071C525.135 463.136 525.135 463.235 525.277 463.461C525.421 463.69 525.665 463.976 526.021 464.393L526.202 464.604L526.233 464.64C526.401 464.836 526.541 465 526.605 465.206C526.669 465.412 526.647 465.627 526.622 465.889L526.617 465.938L526.59 466.22C526.536 466.775 526.5 467.157 526.512 467.432C526.525 467.707 526.582 467.783 526.629 467.818C526.67 467.849 526.745 467.883 526.992 467.813C527.244 467.741 527.578 467.588 528.067 467.363L528.316 467.248L528.361 467.228C528.588 467.122 528.785 467.031 529 467.031C529.215 467.031 529.412 467.122 529.639 467.227C529.654 467.234 529.669 467.241 529.685 467.248L529.932 467.363C530.422 467.588 530.756 467.741 531.007 467.813C531.255 467.883 531.33 467.849 531.371 467.818C531.417 467.783 531.475 467.707 531.488 467.432C531.5 467.157 531.464 466.775 531.41 466.22L531.382 465.938L531.378 465.889C531.352 465.627 531.331 465.412 531.395 465.206C531.459 465 531.599 464.836 531.767 464.64L531.798 464.604L531.979 464.393C532.335 463.976 532.579 463.69 532.723 463.461C532.865 463.235 532.865 463.136 532.844 463.071C532.825 463.01 532.775 462.933 532.537 462.839C532.293 462.743 531.937 462.662 531.415 462.543L531.15 462.483C531.133 462.479 531.117 462.476 531.102 462.473C530.858 462.418 530.648 462.37 530.476 462.24C530.305 462.11 530.2 461.92 530.074 461.695L530.05 461.65L529.913 461.406C529.644 460.923 529.459 460.593 529.295 460.378C529.131 460.164 529.047 460.146 529 460.146C528.952 460.146 528.869 460.164 528.705 460.378ZM528.209 459.998C528.407 459.739 528.652 459.521 529 459.521C529.347 459.521 529.592 459.739 529.791 459.998C529.986 460.253 530.193 460.625 530.446 461.078L530.596 461.346C530.759 461.64 530.801 461.702 530.854 461.742C530.904 461.78 530.969 461.802 531.287 461.874L531.579 461.94C532.069 462.05 532.472 462.142 532.766 462.258C533.071 462.378 533.338 462.555 533.441 462.885C533.543 463.213 533.429 463.513 533.252 463.794C533.08 464.067 532.806 464.388 532.471 464.779L532.273 465.01C532.058 465.262 532.013 465.324 531.992 465.392C531.97 465.461 531.972 465.542 532.005 465.877L532.035 466.185C532.085 466.708 532.127 467.135 532.112 467.46C532.097 467.791 532.022 468.108 531.75 468.316C531.471 468.527 531.147 468.503 530.835 468.413C530.532 468.327 530.155 468.153 529.696 467.942L529.423 467.816C529.124 467.678 529.06 467.656 529 467.656C528.94 467.656 528.876 467.678 528.577 467.816L528.304 467.942C527.845 468.153 527.468 468.327 527.165 468.413C526.852 468.503 526.529 468.527 526.251 468.316C525.977 468.108 525.902 467.791 525.888 467.46C525.873 467.135 525.915 466.708 525.965 466.185L525.995 465.877C526.028 465.541 526.03 465.461 526.008 465.392C525.987 465.324 525.942 465.263 525.727 465.01L525.529 464.779C525.194 464.388 524.92 464.067 524.748 463.794C524.571 463.513 524.457 463.213 524.559 462.885C524.662 462.555 524.929 462.378 525.234 462.258C525.527 462.142 525.931 462.05 526.421 461.94L526.447 461.934L526.712 461.874C527.031 461.802 527.096 461.78 527.146 461.742C527.199 461.702 527.241 461.64 527.405 461.346L527.554 461.078C527.807 460.624 528.014 460.253 528.209 459.998" fill="white"/>
</g>
<g clip-path="url(#clip2_7_37)">
<path opacity="0.8" fill-rule="evenodd" clip-rule="evenodd" d="M462.705 450.378C462.541 450.593 462.356 450.923 462.087 451.406L461.95 451.65L461.926 451.695C461.801 451.92 461.695 452.11 461.524 452.24C461.352 452.37 461.142 452.418 460.898 452.473L460.85 452.483L460.585 452.543C460.062 452.662 459.706 452.743 459.463 452.839C459.225 452.933 459.175 453.01 459.156 453.071C459.135 453.136 459.135 453.235 459.277 453.461C459.421 453.69 459.665 453.976 460.021 454.393L460.202 454.604L460.233 454.64C460.401 454.836 460.541 455 460.605 455.206C460.669 455.412 460.647 455.627 460.622 455.889L460.617 455.938L460.59 456.22C460.536 456.775 460.5 457.157 460.512 457.432C460.525 457.707 460.582 457.783 460.629 457.818C460.67 457.849 460.745 457.883 460.992 457.813C461.244 457.741 461.578 457.588 462.067 457.363L462.316 457.248L462.361 457.228C462.588 457.122 462.785 457.031 463 457.031C463.215 457.031 463.412 457.122 463.639 457.227C463.654 457.234 463.669 457.241 463.685 457.248L463.932 457.363C464.422 457.588 464.756 457.741 465.007 457.813C465.255 457.883 465.33 457.849 465.371 457.818C465.417 457.783 465.475 457.707 465.488 457.432C465.5 457.157 465.464 456.775 465.41 456.22L465.382 455.938L465.378 455.889C465.352 455.627 465.331 455.412 465.395 455.206C465.459 455 465.599 454.836 465.767 454.64L465.798 454.604L465.979 454.393C466.335 453.976 466.579 453.69 466.723 453.461C466.865 453.235 466.865 453.136 466.844 453.071C466.825 453.01 466.775 452.933 466.537 452.839C466.293 452.743 465.937 452.662 465.415 452.543L465.15 452.483C465.133 452.479 465.117 452.476 465.102 452.473C464.858 452.418 464.648 452.37 464.476 452.24C464.305 452.11 464.2 451.92 464.074 451.695L464.05 451.65L463.913 451.406C463.644 450.923 463.459 450.593 463.295 450.378C463.131 450.164 463.047 450.146 463 450.146C462.952 450.146 462.869 450.164 462.705 450.378ZM462.209 449.998C462.407 449.739 462.652 449.521 463 449.521C463.347 449.521 463.592 449.739 463.791 449.998C463.986 450.253 464.193 450.625 464.446 451.078L464.596 451.346C464.759 451.64 464.801 451.702 464.854 451.742C464.904 451.78 464.969 451.802 465.287 451.874L465.579 451.94C466.069 452.05 466.472 452.142 466.766 452.258C467.071 452.378 467.338 452.555 467.441 452.885C467.543 453.213 467.429 453.513 467.252 453.794C467.08 454.067 466.806 454.388 466.471 454.779L466.273 455.01C466.058 455.262 466.013 455.324 465.992 455.392C465.97 455.461 465.972 455.542 466.005 455.877L466.035 456.185C466.085 456.708 466.127 457.135 466.112 457.46C466.097 457.791 466.022 458.108 465.75 458.316C465.471 458.527 465.147 458.503 464.835 458.413C464.532 458.327 464.155 458.153 463.696 457.942L463.423 457.816C463.124 457.678 463.06 457.656 463 457.656C462.94 457.656 462.876 457.678 462.577 457.816L462.304 457.942C461.845 458.153 461.468 458.327 461.165 458.413C460.852 458.503 460.529 458.527 460.251 458.316C459.977 458.108 459.902 457.791 459.888 457.46C459.873 457.135 459.915 456.708 459.965 456.185L459.995 455.877C460.028 455.541 460.03 455.461 460.008 455.392C459.987 455.324 459.942 455.263 459.727 455.01L459.529 454.779C459.194 454.388 458.92 454.067 458.748 453.794C458.571 453.513 458.457 453.213 458.559 452.885C458.662 452.555 458.929 452.378 459.234 452.258C459.527 452.142 459.931 452.05 460.421 451.94L460.447 451.934L460.712 451.874C461.031 451.802 461.096 451.78 461.146 451.742C461.199 451.702 461.241 451.64 461.405 451.346L461.554 451.078C461.807 450.624 462.014 450.253 462.209 449.998" fill="white"/>
</g>
<g clip-path="url(#clip3_7_37)">
<path opacity="0.8" fill-rule="evenodd" clip-rule="evenodd" d="M538.705 371.378C538.541 371.593 538.356 371.923 538.087 372.406L537.95 372.65L537.926 372.695C537.801 372.92 537.695 373.11 537.524 373.24C537.352 373.37 537.142 373.418 536.898 373.473L536.85 373.483L536.585 373.543C536.062 373.662 535.706 373.743 535.463 373.839C535.225 373.933 535.175 374.01 535.156 374.071C535.135 374.136 535.135 374.235 535.277 374.461C535.421 374.69 535.665 374.976 536.021 375.393L536.202 375.604L536.233 375.64C536.401 375.836 536.541 376 536.605 376.206C536.669 376.412 536.647 376.627 536.622 376.889L536.617 376.938L536.59 377.22C536.536 377.775 536.5 378.157 536.512 378.432C536.525 378.707 536.582 378.783 536.629 378.818C536.67 378.849 536.745 378.883 536.992 378.813C537.244 378.741 537.578 378.588 538.067 378.363L538.316 378.248L538.361 378.228C538.588 378.122 538.785 378.031 539 378.031C539.215 378.031 539.412 378.122 539.639 378.227C539.654 378.234 539.669 378.241 539.685 378.248L539.932 378.363C540.422 378.588 540.756 378.741 541.007 378.813C541.255 378.883 541.33 378.849 541.371 378.818C541.417 378.783 541.475 378.707 541.488 378.432C541.5 378.157 541.464 377.775 541.41 377.22L541.382 376.938L541.378 376.889C541.352 376.627 541.331 376.412 541.395 376.206C541.459 376 541.599 375.836 541.767 375.64L541.798 375.604L541.979 375.393C542.335 374.976 542.579 374.69 542.723 374.461C542.865 374.235 542.865 374.136 542.844 374.071C542.825 374.01 542.775 373.933 542.537 373.839C542.293 373.743 541.937 373.662 541.415 373.543L541.15 373.483C541.133 373.479 541.117 373.476 541.102 373.473C540.858 373.418 540.648 373.37 540.476 373.24C540.305 373.11 540.2 372.92 540.074 372.695L540.05 372.65L539.913 372.406C539.644 371.923 539.459 371.593 539.295 371.378C539.131 371.164 539.047 371.146 539 371.146C538.952 371.146 538.869 371.164 538.705 371.378ZM538.209 370.998C538.407 370.739 538.652 370.521 539 370.521C539.347 370.521 539.592 370.739 539.791 370.998C539.986 371.253 540.193 371.625 540.446 372.078L540.596 372.346C540.759 372.64 540.801 372.702 540.854 372.742C540.904 372.78 540.969 372.802 541.287 372.874L541.579 372.94C542.069 373.05 542.472 373.142 542.766 373.258C543.071 373.378 543.338 373.555 543.441 373.885C543.543 374.213 543.429 374.513 543.252 374.794C543.08 375.067 542.806 375.388 542.471 375.779L542.273 376.01C542.058 376.262 542.013 376.324 541.992 376.392C541.97 376.461 541.972 376.542 542.005 376.877L542.035 377.185C542.085 377.708 542.127 378.135 542.112 378.46C542.097 378.791 542.022 379.108 541.75 379.316C541.471 379.527 541.147 379.503 540.835 379.413C540.532 379.327 540.155 379.153 539.696 378.942L539.423 378.816C539.124 378.678 539.06 378.656 539 378.656C538.94 378.656 538.876 378.678 538.577 378.816L538.304 378.942C537.845 379.153 537.468 379.327 537.165 379.413C536.852 379.503 536.529 379.527 536.251 379.316C535.977 379.108 535.902 378.791 535.888 378.46C535.873 378.135 535.915 377.708 535.965 377.185L535.995 376.877C536.028 376.541 536.03 376.461 536.008 376.392C535.987 376.324 535.942 376.263 535.727 376.01L535.529 375.779C535.194 375.388 534.92 375.067 534.748 374.794C534.571 374.513 534.457 374.213 534.559 373.885C534.662 373.555 534.929 373.378 535.234 373.258C535.527 373.142 535.931 373.05 536.421 372.94L536.447 372.934L536.712 372.874C537.031 372.802 537.096 372.78 537.146 372.742C537.199 372.702 537.241 372.64 537.405 372.346L537.554 372.078C537.807 371.624 538.014 371.253 538.209 370.998" fill="white"/>
</g>
<g clip-path="url(#clip4_7_37)">
<path opacity="0.8" fill-rule="evenodd" clip-rule="evenodd" d="M445.705 394.378C445.541 394.593 445.356 394.923 445.087 395.406L444.95 395.65L444.926 395.695C444.801 395.92 444.695 396.11 444.524 396.24C444.352 396.37 444.142 396.418 443.898 396.473L443.85 396.483L443.585 396.543C443.062 396.662 442.706 396.743 442.463 396.839C442.225 396.933 442.175 397.01 442.156 397.071C442.135 397.136 442.135 397.235 442.277 397.461C442.421 397.69 442.665 397.976 443.021 398.393L443.202 398.604L443.233 398.64C443.401 398.836 443.541 399 443.605 399.206C443.669 399.412 443.647 399.627 443.622 399.889L443.617 399.938L443.59 400.22C443.536 400.775 443.5 401.157 443.512 401.432C443.525 401.707 443.582 401.783 443.629 401.818C443.67 401.849 443.745 401.883 443.992 401.813C444.244 401.741 444.578 401.588 445.067 401.363L445.316 401.248L445.361 401.228C445.588 401.122 445.785 401.031 446 401.031C446.215 401.031 446.412 401.122 446.639 401.227C446.654 401.234 446.669 401.241 446.685 401.248L446.932 401.363C447.422 401.588 447.756 401.741 448.007 401.813C448.255 401.883 448.33 401.849 448.371 401.818C448.417 401.783 448.475 401.707 448.488 401.432C448.5 401.157 448.464 400.775 448.41 400.22L448.382 399.938L448.378 399.889C448.352 399.627 448.331 399.412 448.395 399.206C448.459 399 448.599 398.836 448.767 398.64L448.798 398.604L448.979 398.393C449.335 397.976 449.579 397.69 449.723 397.461C449.865 397.235 449.865 397.136 449.844 397.071C449.825 397.01 449.775 396.933 449.537 396.839C449.293 396.743 448.937 396.662 448.415 396.543L448.15 396.483C448.133 396.479 448.117 396.476 448.102 396.473C447.858 396.418 447.648 396.37 447.476 396.24C447.305 396.11 447.2 395.92 447.074 395.695L447.05 395.65L446.913 395.406C446.644 394.923 446.459 394.593 446.295 394.378C446.131 394.164 446.047 394.146 446 394.146C445.952 394.146 445.869 394.164 445.705 394.378ZM445.209 393.998C445.407 393.739 445.652 393.521 446 393.521C446.347 393.521 446.592 393.739 446.791 393.998C446.986 394.253 447.193 394.625 447.446 395.078L447.596 395.346C447.759 395.64 447.801 395.702 447.854 395.742C447.904 395.78 447.969 395.802 448.287 395.874L448.579 395.94C449.069 396.05 449.472 396.142 449.766 396.258C450.071 396.378 450.338 396.555 450.441 396.885C450.543 397.213 450.429 397.513 450.252 397.794C450.08 398.067 449.806 398.388 449.471 398.779L449.273 399.01C449.058 399.262 449.013 399.324 448.992 399.392C448.97 399.461 448.972 399.542 449.005 399.877L449.035 400.185C449.085 400.708 449.127 401.135 449.112 401.46C449.097 401.791 449.022 402.108 448.75 402.316C448.471 402.527 448.147 402.503 447.835 402.413C447.532 402.327 447.155 402.153 446.696 401.942L446.423 401.816C446.124 401.678 446.06 401.656 446 401.656C445.94 401.656 445.876 401.678 445.577 401.816L445.304 401.942C444.845 402.153 444.468 402.327 444.165 402.413C443.852 402.503 443.529 402.527 443.251 402.316C442.977 402.108 442.902 401.791 442.888 401.46C442.873 401.135 442.915 400.708 442.965 400.185L442.995 399.877C443.028 399.541 443.03 399.461 443.008 399.392C442.987 399.324 442.942 399.263 442.727 399.01L442.529 398.779C442.194 398.388 441.92 398.067 441.748 397.794C441.571 397.513 441.457 397.213 441.559 396.885C441.662 396.555 441.929 396.378 442.234 396.258C442.527 396.142 442.931 396.05 443.421 395.94L443.447 395.934L443.712 395.874C444.031 395.802 444.096 395.78 444.146 395.742C444.199 395.702 444.241 395.64 444.405 395.346L444.554 395.078C444.807 394.624 445.014 394.253 445.209 393.998" fill="white"/>
</g>
</g>
<defs>
<clipPath id="clip0_7_37">
<rect width="1000" height="500" fill="white"/>
</clipPath>
<clipPath id="clip1_7_37">
<rect width="10" height="10" fill="white" transform="translate(524 459)"/>
</clipPath>
<clipPath id="clip2_7_37">
<rect width="10" height="10" fill="white" transform="translate(458 449)"/>
</clipPath>
<clipPath id="clip3_7_37">
<rect width="10" height="10" fill="white" transform="translate(534 370)"/>
</clipPath>
<clipPath id="clip4_7_37">
<rect width="10" height="10" fill="white" transform="translate(441 393)"/>
</clipPath>
</defs>
</svg>
